<mxfile host="app.diagrams.net" modified="2023-04-30T10:47:36.826Z" agent="Mozilla/5.0 (Windows NT 10.0; Win64; x64; rv:109.0) Gecko/20100101 Firefox/113.0" etag="NZemutnMo_b9FNAJEZio" version="21.2.1" type="device">
  <diagram name="第 1 页" id="LkJMdZgo4iK7MCBqRewZ">
    <mxGraphModel dx="1290" dy="2220" grid="1" gridSize="10" guides="1" tooltips="1" connect="1" arrows="1" fold="1" page="1" pageScale="1" pageWidth="1169" pageHeight="827" math="0" shadow="0">
      <root>
        <mxCell id="0" />
        <mxCell id="1" parent="0" />
        <mxCell id="08qxT0LJhU4w2N7qjNoc-26" style="edgeStyle=orthogonalEdgeStyle;rounded=1;orthogonalLoop=1;jettySize=auto;html=1;exitX=1;exitY=0.75;exitDx=0;exitDy=0;entryX=0;entryY=0.75;entryDx=0;entryDy=0;fontColor=default;labelBackgroundColor=none;strokeColor=#A8201A;" edge="1" parent="1" source="08qxT0LJhU4w2N7qjNoc-5" target="08qxT0LJhU4w2N7qjNoc-17">
          <mxGeometry relative="1" as="geometry" />
        </mxCell>
        <mxCell id="08qxT0LJhU4w2N7qjNoc-32" value="[旋钮正转]" style="edgeLabel;html=1;align=center;verticalAlign=middle;resizable=0;points=[];fontColor=#143642;rounded=1;labelBackgroundColor=none;" vertex="1" connectable="0" parent="08qxT0LJhU4w2N7qjNoc-26">
          <mxGeometry x="-0.18" y="-2" relative="1" as="geometry">
            <mxPoint y="8" as="offset" />
          </mxGeometry>
        </mxCell>
        <mxCell id="08qxT0LJhU4w2N7qjNoc-31" style="edgeStyle=orthogonalEdgeStyle;rounded=1;orthogonalLoop=1;jettySize=auto;html=1;entryX=0;entryY=0.5;entryDx=0;entryDy=0;strokeColor=#A8201A;fontColor=default;fillColor=#FAE5C7;labelBackgroundColor=none;exitX=0.5;exitY=0;exitDx=0;exitDy=0;" edge="1" parent="1" source="08qxT0LJhU4w2N7qjNoc-37" target="08qxT0LJhU4w2N7qjNoc-28">
          <mxGeometry relative="1" as="geometry">
            <mxPoint x="960" y="-1400" as="sourcePoint" />
          </mxGeometry>
        </mxCell>
        <mxCell id="08qxT0LJhU4w2N7qjNoc-34" value="[旋钮按键按下]" style="edgeLabel;html=1;align=center;verticalAlign=middle;resizable=0;points=[];fontColor=#143642;rounded=1;labelBackgroundColor=none;" vertex="1" connectable="0" parent="08qxT0LJhU4w2N7qjNoc-31">
          <mxGeometry x="-0.7342" relative="1" as="geometry">
            <mxPoint y="3" as="offset" />
          </mxGeometry>
        </mxCell>
        <mxCell id="08qxT0LJhU4w2N7qjNoc-48" style="edgeStyle=orthogonalEdgeStyle;rounded=1;orthogonalLoop=1;jettySize=auto;html=1;exitX=0.25;exitY=1;exitDx=0;exitDy=0;entryX=0.75;entryY=1;entryDx=0;entryDy=0;strokeColor=#A8201A;fontColor=default;fillColor=#FAE5C7;labelBackgroundColor=none;" edge="1" parent="1" source="08qxT0LJhU4w2N7qjNoc-5" target="08qxT0LJhU4w2N7qjNoc-37">
          <mxGeometry relative="1" as="geometry">
            <Array as="points">
              <mxPoint x="163" y="-1170" />
              <mxPoint x="958" y="-1170" />
            </Array>
          </mxGeometry>
        </mxCell>
        <mxCell id="08qxT0LJhU4w2N7qjNoc-50" value="[旋钮反转]" style="edgeLabel;html=1;align=center;verticalAlign=middle;resizable=0;points=[];fontColor=#143642;rounded=1;labelBackgroundColor=none;" vertex="1" connectable="0" parent="08qxT0LJhU4w2N7qjNoc-48">
          <mxGeometry x="-0.0244" y="1" relative="1" as="geometry">
            <mxPoint y="-9" as="offset" />
          </mxGeometry>
        </mxCell>
        <mxCell id="08qxT0LJhU4w2N7qjNoc-5" value="默认状态" style="swimlane;whiteSpace=wrap;html=1;labelBackgroundColor=none;rounded=1;fillColor=#FAE5C7;strokeColor=#0F8B8D;fontColor=#143642;" vertex="1" parent="1">
          <mxGeometry x="110" y="-1350" width="210" height="100" as="geometry" />
        </mxCell>
        <mxCell id="08qxT0LJhU4w2N7qjNoc-6" value="&lt;div align=&quot;left&quot;&gt;Entry: p0.pic=1&lt;/div&gt;&lt;div align=&quot;left&quot;&gt;&amp;nbsp;&amp;nbsp;&amp;nbsp;&amp;nbsp;&amp;nbsp;&amp;nbsp;&amp;nbsp;&amp;nbsp;&amp;nbsp; p1.pic=3&lt;br&gt;&lt;/div&gt;&lt;div align=&quot;left&quot;&gt;Do:&amp;nbsp;&amp;nbsp;&amp;nbsp;&amp;nbsp; &lt;br&gt;&lt;/div&gt;&lt;div align=&quot;left&quot;&gt;Exit:&lt;br&gt;&lt;/div&gt;" style="text;html=1;align=left;verticalAlign=middle;resizable=0;points=[];autosize=1;strokeColor=none;fillColor=none;labelBackgroundColor=none;rounded=1;fontColor=#143642;" vertex="1" parent="08qxT0LJhU4w2N7qjNoc-5">
          <mxGeometry x="10" y="22" width="100" height="70" as="geometry" />
        </mxCell>
        <mxCell id="08qxT0LJhU4w2N7qjNoc-7" value="" style="ellipse;html=1;shape=startState;labelBackgroundColor=none;rounded=1;fillColor=#FAE5C7;strokeColor=#0F8B8D;fontColor=#143642;" vertex="1" parent="1">
          <mxGeometry x="202" y="-1410" width="26" height="30" as="geometry" />
        </mxCell>
        <mxCell id="08qxT0LJhU4w2N7qjNoc-8" value="" style="edgeStyle=orthogonalEdgeStyle;html=1;verticalAlign=bottom;endArrow=open;endSize=8;rounded=1;entryX=0.5;entryY=0;entryDx=0;entryDy=0;labelBackgroundColor=none;fontColor=default;strokeColor=#A8201A;" edge="1" parent="1" source="08qxT0LJhU4w2N7qjNoc-7" target="08qxT0LJhU4w2N7qjNoc-5">
          <mxGeometry relative="1" as="geometry">
            <mxPoint x="200" y="-1410" as="targetPoint" />
          </mxGeometry>
        </mxCell>
        <mxCell id="08qxT0LJhU4w2N7qjNoc-27" style="edgeStyle=orthogonalEdgeStyle;rounded=1;orthogonalLoop=1;jettySize=auto;html=1;exitX=0;exitY=0.25;exitDx=0;exitDy=0;entryX=1;entryY=0.25;entryDx=0;entryDy=0;fontColor=default;labelBackgroundColor=none;strokeColor=#A8201A;" edge="1" parent="1" source="08qxT0LJhU4w2N7qjNoc-17" target="08qxT0LJhU4w2N7qjNoc-5">
          <mxGeometry relative="1" as="geometry" />
        </mxCell>
        <mxCell id="08qxT0LJhU4w2N7qjNoc-33" value="[旋钮反转]" style="edgeLabel;html=1;align=center;verticalAlign=middle;resizable=0;points=[];fontColor=#143642;rounded=1;labelBackgroundColor=none;" vertex="1" connectable="0" parent="08qxT0LJhU4w2N7qjNoc-27">
          <mxGeometry x="0.2133" y="-2" relative="1" as="geometry">
            <mxPoint y="11" as="offset" />
          </mxGeometry>
        </mxCell>
        <mxCell id="08qxT0LJhU4w2N7qjNoc-29" style="edgeStyle=orthogonalEdgeStyle;rounded=1;orthogonalLoop=1;jettySize=auto;html=1;entryX=0;entryY=0.5;entryDx=0;entryDy=0;fontColor=default;labelBackgroundColor=none;strokeColor=#A8201A;exitX=0.5;exitY=0;exitDx=0;exitDy=0;" edge="1" parent="1" source="08qxT0LJhU4w2N7qjNoc-17" target="08qxT0LJhU4w2N7qjNoc-28">
          <mxGeometry relative="1" as="geometry">
            <mxPoint x="890" y="-1530" as="sourcePoint" />
          </mxGeometry>
        </mxCell>
        <mxCell id="08qxT0LJhU4w2N7qjNoc-35" value="[旋钮按键按下]" style="edgeLabel;html=1;align=center;verticalAlign=middle;resizable=0;points=[];fontColor=#143642;rounded=1;labelBackgroundColor=none;" vertex="1" connectable="0" parent="08qxT0LJhU4w2N7qjNoc-29">
          <mxGeometry x="-0.5287" y="1" relative="1" as="geometry">
            <mxPoint x="-76" y="26" as="offset" />
          </mxGeometry>
        </mxCell>
        <mxCell id="08qxT0LJhU4w2N7qjNoc-40" style="edgeStyle=orthogonalEdgeStyle;rounded=1;orthogonalLoop=1;jettySize=auto;html=1;exitX=1;exitY=0.75;exitDx=0;exitDy=0;entryX=0;entryY=0.75;entryDx=0;entryDy=0;strokeColor=#A8201A;fontColor=default;fillColor=#FAE5C7;labelBackgroundColor=none;" edge="1" parent="1" source="08qxT0LJhU4w2N7qjNoc-17" target="08qxT0LJhU4w2N7qjNoc-37">
          <mxGeometry relative="1" as="geometry" />
        </mxCell>
        <mxCell id="08qxT0LJhU4w2N7qjNoc-42" value="[旋钮正转]" style="edgeLabel;html=1;align=center;verticalAlign=middle;resizable=0;points=[];fontColor=#143642;rounded=1;labelBackgroundColor=none;" vertex="1" connectable="0" parent="08qxT0LJhU4w2N7qjNoc-40">
          <mxGeometry x="-0.1852" y="-1" relative="1" as="geometry">
            <mxPoint x="10" y="14" as="offset" />
          </mxGeometry>
        </mxCell>
        <mxCell id="08qxT0LJhU4w2N7qjNoc-17" value="频谱仪选项" style="swimlane;whiteSpace=wrap;html=1;labelBackgroundColor=none;rounded=1;fillColor=#FAE5C7;strokeColor=#0F8B8D;fontColor=#143642;" vertex="1" parent="1">
          <mxGeometry x="455" y="-1350" width="210" height="100" as="geometry" />
        </mxCell>
        <mxCell id="08qxT0LJhU4w2N7qjNoc-18" value="&lt;div align=&quot;left&quot;&gt;Entry: p0.pic=2&lt;/div&gt;&lt;div align=&quot;left&quot;&gt;&amp;nbsp;&amp;nbsp;&amp;nbsp;&amp;nbsp;&amp;nbsp;&amp;nbsp;&amp;nbsp;&amp;nbsp;&amp;nbsp; p1.pic=3&lt;br&gt;&lt;/div&gt;&lt;div align=&quot;left&quot;&gt;Do:&amp;nbsp;&amp;nbsp;&amp;nbsp;&amp;nbsp; &lt;br&gt;&lt;/div&gt;&lt;div align=&quot;left&quot;&gt;Exit:&lt;br&gt;&lt;/div&gt;" style="text;html=1;align=left;verticalAlign=middle;resizable=0;points=[];autosize=1;strokeColor=none;fillColor=none;labelBackgroundColor=none;rounded=1;fontColor=#143642;" vertex="1" parent="08qxT0LJhU4w2N7qjNoc-17">
          <mxGeometry x="10" y="23" width="100" height="70" as="geometry" />
        </mxCell>
        <mxCell id="08qxT0LJhU4w2N7qjNoc-23" value="&lt;font style=&quot;font-size: 48px;&quot;&gt;菜单子系统状态机&lt;/font&gt;" style="text;html=1;align=center;verticalAlign=middle;resizable=0;points=[];autosize=1;strokeColor=none;fillColor=none;rounded=1;labelBackgroundColor=none;fontColor=#143642;" vertex="1" parent="1">
          <mxGeometry x="370" y="-1550" width="410" height="70" as="geometry" />
        </mxCell>
        <mxCell id="08qxT0LJhU4w2N7qjNoc-28" value="" style="ellipse;html=1;shape=endState;labelBackgroundColor=none;fillColor=#FAE5C7;strokeColor=#0F8B8D;fontColor=#143642;rounded=1;" vertex="1" parent="1">
          <mxGeometry x="1030" y="-1410" width="30" height="30" as="geometry" />
        </mxCell>
        <mxCell id="08qxT0LJhU4w2N7qjNoc-41" style="edgeStyle=orthogonalEdgeStyle;rounded=1;orthogonalLoop=1;jettySize=auto;html=1;exitX=0;exitY=0.25;exitDx=0;exitDy=0;entryX=1;entryY=0.25;entryDx=0;entryDy=0;strokeColor=#A8201A;fontColor=default;fillColor=#FAE5C7;labelBackgroundColor=none;" edge="1" parent="1" source="08qxT0LJhU4w2N7qjNoc-37" target="08qxT0LJhU4w2N7qjNoc-17">
          <mxGeometry relative="1" as="geometry" />
        </mxCell>
        <mxCell id="08qxT0LJhU4w2N7qjNoc-43" value="[旋钮反转]" style="edgeLabel;html=1;align=center;verticalAlign=middle;resizable=0;points=[];fontColor=#143642;rounded=1;labelBackgroundColor=none;" vertex="1" connectable="0" parent="08qxT0LJhU4w2N7qjNoc-41">
          <mxGeometry x="0.1358" y="2" relative="1" as="geometry">
            <mxPoint x="7" y="13" as="offset" />
          </mxGeometry>
        </mxCell>
        <mxCell id="08qxT0LJhU4w2N7qjNoc-46" style="edgeStyle=orthogonalEdgeStyle;rounded=1;orthogonalLoop=1;jettySize=auto;html=1;exitX=0.25;exitY=1;exitDx=0;exitDy=0;entryX=0.75;entryY=1;entryDx=0;entryDy=0;strokeColor=#A8201A;fontColor=default;fillColor=#FAE5C7;labelBackgroundColor=none;" edge="1" parent="1" source="08qxT0LJhU4w2N7qjNoc-37" target="08qxT0LJhU4w2N7qjNoc-5">
          <mxGeometry relative="1" as="geometry">
            <Array as="points">
              <mxPoint x="853" y="-1210" />
              <mxPoint x="268" y="-1210" />
            </Array>
          </mxGeometry>
        </mxCell>
        <mxCell id="08qxT0LJhU4w2N7qjNoc-49" value="[旋钮正转]" style="edgeLabel;html=1;align=center;verticalAlign=middle;resizable=0;points=[];fontColor=#143642;rounded=1;labelBackgroundColor=none;" vertex="1" connectable="0" parent="08qxT0LJhU4w2N7qjNoc-46">
          <mxGeometry x="0.0451" y="-2" relative="1" as="geometry">
            <mxPoint x="5" y="-8" as="offset" />
          </mxGeometry>
        </mxCell>
        <mxCell id="08qxT0LJhU4w2N7qjNoc-37" value="设置选项" style="swimlane;whiteSpace=wrap;html=1;labelBackgroundColor=none;rounded=1;fillColor=#FAE5C7;strokeColor=#0F8B8D;fontColor=#143642;" vertex="1" parent="1">
          <mxGeometry x="800" y="-1350" width="210" height="100" as="geometry" />
        </mxCell>
        <mxCell id="08qxT0LJhU4w2N7qjNoc-38" value="&lt;div align=&quot;left&quot;&gt;Entry: p0.pic=1&lt;/div&gt;&lt;div align=&quot;left&quot;&gt;&amp;nbsp;&amp;nbsp;&amp;nbsp;&amp;nbsp;&amp;nbsp;&amp;nbsp;&amp;nbsp;&amp;nbsp;&amp;nbsp; p1.pic=4&lt;br&gt;&lt;/div&gt;&lt;div align=&quot;left&quot;&gt;Do:&amp;nbsp;&amp;nbsp;&amp;nbsp;&amp;nbsp; &lt;br&gt;&lt;/div&gt;&lt;div align=&quot;left&quot;&gt;Exit:&lt;br&gt;&lt;/div&gt;" style="text;html=1;align=left;verticalAlign=middle;resizable=0;points=[];autosize=1;strokeColor=none;fillColor=none;labelBackgroundColor=none;rounded=1;fontColor=#143642;" vertex="1" parent="08qxT0LJhU4w2N7qjNoc-37">
          <mxGeometry x="10" y="23" width="100" height="70" as="geometry" />
        </mxCell>
      </root>
    </mxGraphModel>
  </diagram>
</mxfile>
